PathFileType	4	(X/Y/Z)	E:\Qualisys_Data\Carbon_Farble_Plate\Data\Amateur_Runner\S1\T1\S1T1V22_c3d.trc
DataRate	CameraRate	NumFrames	NumMarkers	Units	OrigDataRate	OrigDataStartFrame	OrigNumFrames
200.000000	200.000000	4	39	mm	200.000000	139	278
Frame#	Time	LSHO			RSHO			LICST			RICST			LASIS			LHEEL			RASIS			LTROC			RTROC			SACR			LTH1			LSK4			LTH2			LTH3			RHM5			LSK2			LTH4			RTH1			LTOE			RTH2			RTH3			RTH4			LLEP			RLEP			LSK1			LSK3			RSK1			LHM5			RSK2			LFT1			RSK3			RSK4			LLME			RLME			RTOE			RHEEL			RFT1			RFT2			LFT2			
		X1	Y1	Z1	X2	Y2	Z2	X3	Y3	Z3	X4	Y4	Z4	X5	Y5	Z5	X6	Y6	Z6	X7	Y7	Z7	X8	Y8	Z8	X9	Y9	Z9	X10	Y10	Z10	X11	Y11	Z11	X12	Y12	Z12	X13	Y13	Z13	X14	Y14	Z14	X15	Y15	Z15	X16	Y16	Z16	X17	Y17	Z17	X18	Y18	Z18	X19	Y19	Z19	X20	Y20	Z20	X21	Y21	Z21	X22	Y22	Z22	X23	Y23	Z23	X24	Y24	Z24	X25	Y25	Z25	X26	Y26	Z26	X27	Y27	Z27	X28	Y28	Z28	X29	Y29	Z29	X30	Y30	Z30	X31	Y31	Z31	X32	Y32	Z32	X33	Y33	Z33	X34	Y34	Z34	X35	Y35	Z35	X36	Y36	Z36	X37	Y37	Z37	X38	Y38	Z38	X39	Y39	Z39	

140	0.695	235.5384826660156	1516.02490234375	-451.8272399902344	168.0019073486328	1494.679443359375	-137.6571502685547	171.5458984375	1039.03173828125	-454.0160522460938	161.5421447753906	1059.436645507812	-157.6638641357422	214.2016448974609	1000.251953125	-427.5962829589844	-330.7541198730469	497.4723815917969	-350.1707153320312	201.7634735107422	1013.983276367188	-164.9057922363281	100.7922668457031	920.4998168945312	-478.0020751953125	99.78215026855467	917.1141357421876	-136.8271179199219	49.26682281494141	1064.656005859375	-304.9551696777344	211.1418762207031	755.5772705078125	-441.5370788574219	-190.0098114013672	512.9140625	-385.7916564941406	132.2596435546875	756.0845336914062	-473.1590576171875	202.5543365478516	651.7732543945312	-430.2681579589844	465.4803466796875	87.77860260009766	-144.4170684814453	-96.0788116455078	523.3346557617188	-425.9317932128906	119.6975021362305	657.6490478515625	-451.6302490234375	257.8300170898438	816.9247436523438	-149.8948974609375	-315.8806457519531	242.7148590087891	-330.5153503417969	184.2173614501953	791.9544677734375	-123.2071151733398	288.4646606445312	719.2677001953125	-153.9428558349609	210.8328704833984	695.8953857421875	-136.06884765625	116.5569534301758	506.1984252929688	-421.3994140625	294.6446838378906	551.1538696289062	-176.173095703125	-86.14437103271484	439.7781066894531	-412.6133728027344	-186.2101135253906	434.8211975097656	-405.67578125	318.9255676269531	361.4518432617188	-150.162841796875	-349.0700378417969	298.7850952148438	-391.5808715820312	238.2153015136719	350.0880737304688	-157.0352325439453	-349.0707397460938	486.7674560546875	-319.6351318359375	334.6892700195312	262.8643798828125	-161.3365631103516	256.7156982421875	252.5792388916016	-177.6354064941406	-306.717041015625	445.5328063964844	-396.79443359375	328.125	124.6166915893555	-158.0164489746094	521.0343627929688	135.7668609619141	-219.0222015380859	274.8194580078125	75.46792602539062	-199.2399139404297	291.8345947265625	52.14716339111328	-234.8130950927734	286.9357299804688	52.24537658691406	-175.9032135009766	-361.8268432617188	487.1733093261719	-370.8665161132812
141	0.7	255.0891876220703	1512.622192382812	-450.6571960449219	189.9146881103516	1490.160522460938	-136.0064392089844	191.3604125976562	1035.323364257812	-453.6470336914062	181.2294769287109	1056.323364257812	-157.4295806884766	234.2853240966797	996.4518432617188	-426.9850769042969	-300.3432922363281	503.6967468261719	-349.0014038085938	220.6500854492188	1009.9462890625	-163.4609069824219	121.6324920654297	916.0126342773438	-477.3674621582031	118.7097244262695	914.006591796875	-136.5947418212891	68.86725616455078	1060.512451171875	-304.6940002441406	235.6041412353516	753.4161987304688	-442.3083801269531	-159.0832061767578	516.0381469726562	-384.568359375	156.2696228027344	752.296875	-472.9872436523438	228.9263153076172	649.0103149414062	-431.473388671875	470.6938171386719	77.13813781738281	-144.7803344726562	-64.70008087158203	525.072509765625	-425.303466796875	145.2073211669922	653.4165649414062	-451.8463134765625	276.9406433105469	814.1317138671875	-147.4490051269531	-288.93603515625	248.4411468505859	-330.9389343261719	203.2345428466797	788.9536743164062	-122.8019180297852	308.5263977050781	717.3853759765625	-152.7739715576172	230.1219177246094	693.5349731445312	-136.2089233398438	146.5137176513672	503.330322265625	-422.3448486328125	311.2965393066406	546.0310668945312	-175.5556335449219	-56.06606292724609	441.505859375	-413.9073181152344	-157.1096954345703	438.2383728027344	-405.4609069824219	332.0441284179688	355.9291076660156	-150.1577758789062	-321.4827270507812	305.4942016601562	-391.4486694335938	251.3814392089844	346.6318969726562	-157.1841583251953	-318.7424011230469	492.9373779296875	-318.031005859375	346.3047790527344	257.0537109375	-161.562744140625	268.1742858886719	248.0336151123047	-178.9300994873047	-277.2460632324219	450.9310913085938	-395.4709777832031	336.4144592285156	120.0478210449219	-158.9420318603516	529.1314086914062	121.8992614746094	-218.1635284423828	281.3335266113281	78.0816650390625	-198.6055297851562	294.695068359375	52.14599990844727	-232.9502258300781	291.3505859375	52.77489852905273	-175.2974700927734	-331.8494262695312	493.6249084472656	-369.3061828613281
142	0.705	274.5458984375	1509.308837890625	-449.7411499023438	211.5336761474609	1485.2265625	-134.7183227539062	211.4116668701172	1031.39697265625	-452.8533630371094	199.6708831787109	1052.225708007812	-156.0103302001953	253.9824523925781	992.5382080078124	-426.0242309570312	-269.4236145019531	509.4562683105469	-347.3416137695312	240.8170166015625	1006.730041503906	-162.76416015625	142.1302947998047	911.8729248046876	-476.5680847167969	137.5104522705078	910.806884765625	-136.5449981689453	88.94941711425781	1056.243041992188	-304.2092590332031	259.6246948242188	750.9200439453125	-443.0017700195312	-127.5156555175781	518.7329711914062	-383.7374267578125	179.8544158935547	748.71630859375	-473.1804504394531	255.3099365234375	646.6156005859375	-432.5079650878906	475.2620849609375	65.00157165527344	-144.3112030029297	-33.05681610107422	526.1961669921875	-423.9236755371094	171.4393463134766	649.0240478515625	-451.5516357421875	295.8817138671875	811.4658813476562	-145.5330505371094	-261.1204528808594	253.7975463867188	-331.280029296875	221.8103332519531	785.3500366210938	-122.0877380371094	326.2952575683594	714.2251586914062	-152.0755767822266	248.8970489501953	690.2544555664062	-136.8492889404297	176.7104797363281	499.4420776367188	-421.9566040039062	327.6093139648438	541.1679077148438	-174.0638580322266	-26.17038154602051	442.6357421875	-413.8615417480469	-127.2682800292969	441.0093688964844	-404.9356384277344	344.6497802734375	350.146240234375	-150.6598052978516	-292.6652221679688	311.1915588378906	-391.4162292480469	263.6509094238281	341.9288024902344	-158.0899810791016	-287.8843078613281	498.3290405273438	-317.1188354492188	357.0733337402344	250.8813171386719	-161.7918701171875	278.5393676757812	243.9634552001953	-180.0479888916016	-247.1580810546875	456.6996459960938	-394.8893737792969	343.96435546875	115.3821334838867	-158.8871154785156	536.6649780273438	106.7377166748047	-216.9231872558594	286.5065307617188	76.80741882324219	-198.633056640625	299.4246826171875	51.5662841796875	-233.3336486816406	295.4409484863281	51.00264739990234	-174.8955383300781	-300.2093811035156	499.8585205078125	-370.432373046875
143	0.71	293.9593505859375	1505.603759765625	-448.8411560058594	233.3885650634766	1480.261596679688	-132.9158020019531	231.4233703613281	1027.50830078125	-452.3545227050781	218.8701019287109	1048.46923828125	-155.0276489257812	274.0187072753906	988.9283447265624	-425.4443664550781	-238.2195434570312	513.5308227539062	-345.5755310058594	260.5347595214844	1003.068542480469	-161.375244140625	162.8659515380859	907.2159423828124	-475.119384765625	156.6618499755859	907.3461303710938	-136.2521820068359	108.2982788085938	1052.117065429688	-303.5437622070312	284.1296081542969	748.8756713867188	-443.8087768554688	-95.68621826171876	521.1596069335938	-382.2352905273438	203.6009216308594	743.9325561523438	-472.2626037597656	282.1250915527344	644.2469482421875	-434.331298828125	480.1466369628906	54.77487945556641	-142.6064758300781	-1.109448075294495	527.1066284179688	-422.9365234375	197.687255859375	644.767578125	-451.2373962402344	314.5716552734375	808.3888549804688	-143.5608673095703	-231.9403533935547	258.1554870605469	-331.6848754882812	240.3523254394531	781.6255493164062	-121.2284545898438	344.8515319824219	711.0982055664062	-151.23876953125	268.2421875	686.7142333984375	-138.1044616699219	207.2728271484375	496.094970703125	-422.6547241210938	343.9724731445312	535.7489624023438	-172.8018493652344	4.190340042114258	443.0678100585938	-413.8854064941406	-96.7366180419922	443.299072265625	-404.49365234375	356.915283203125	344.5780944824219	-150.5313262939453	-262.931396484375	316.5359191894531	-392.7183227539062	275.6100463867188	338.4242248535156	-159.1021423339844	-256.8239440917969	503.0020751953125	-315.7542114257812	366.7493591308594	245.0456390380859	-161.7187194824219	288.3693542480469	240.1157379150391	-181.1011962890625	-216.1569671630859	461.1393127441406	-394.0380249023438	350.0146179199219	110.9032821655273	-159.2118377685547	543.5046997070312	90.92771911621094	-217.2959594726562	290.8457641601562	76.9471206665039	-197.8524627685547	301.7196655273438	50.83258819580078	-233.2009887695312	297.5376586914062	50.17631530761719	-174.4378051757812	-268.7376708984375	504.8484497070312	-368.7350463867188
